<svg xmlns="http://www.w3.org/2000/svg" viewBox="0 0 283.46 101.64"><title>xfive</title><path d="M273.52 38.73c-5.75-5-13.46-7.56-22.92-7.56-9.18 0-17.15 2.82-23 8.16-4.77 4.33-10.45 12.54-10.45 27.08 0 12.1 3.54 21.36 10.53 27.53 5.72 5 13.66 7.71 22.94 7.71 9.47 0 18.17-3 23.88-8.1l.06-.05a28.24 28.24 0 0 0 2.15-2.18 7.64 7.64 0 0 0 .56-1 7.56 7.56 0 0 0 .19-5.86 7.64 7.64 0 0 0-7.12-4.89 7.44 7.44 0 0 0-1.71.2 7.63 7.63 0 0 0-3.49 1.88l-1.23 1.17c-4.23 3.38-10.66 3.71-13.28 3.71-5.3 0-9.35-1.06-12.26-3.39-4-3.17-4.87-8-5.11-13.11h2.32l41.93.05h.58a5.69 5.69 0 0 0 3.21-1c1.45-1 2.18-3 2.18-5.77-.02-7.31-2.62-18.17-9.96-24.58zM238.34 49.9c3.16-3.44 8.45-4.82 12.27-4.82 7.07 0 12.28 3 15 8.71A22 22 0 0 1 267 58h-33.22s.6-3.8 4.56-8.1zM212.77 31.39a8.21 8.21 0 0 0-2.54-.41 8.55 8.55 0 0 0-8.14 6.22c0 .13-.14.45-15.1 36.25l-1.9 4.55-1.9-4.55c-15-35.91-15.06-36.12-15.1-36.25a8.55 8.55 0 0 0-8.14-6.2 8.21 8.21 0 0 0-2.54.41 9 9 0 0 0-5.61 11.15c.68 1.76 14.91 35.56 21.27 50.64h.06l.74 1.73a8.53 8.53 0 0 0 7.22 5.23l1.92.13h4l1.94-.11a8.51 8.51 0 0 0 7.32-5.24l.74-1.73h.05c7.51-17.85 20.57-48.91 21.28-50.67a9 9 0 0 0-5.57-11.15zM139 30.41h-36.66l.09-4.41c.1-4.28 5.12-8.14 9.8-8.79h.42a8.54 8.54 0 0 0 .77-17L111.57 0A27.63 27.63 0 0 0 85 25.89v4.51h-5.35a8.54 8.54 0 0 0 .62 17H85v44.29l.06.51a8.54 8.54 0 0 0 17-1c0-.49-.1-41.36-.1-41.78v-2h28.28v44.27l.06.51a8.54 8.54 0 0 0 17-1V39.09a8.72 8.72 0 0 0-2.39-6.09 8.42 8.42 0 0 0-5.91-2.59zM14.56 33.38a8.54 8.54 0 0 0-5.26-2.46H7.77A8.52 8.52 0 0 0 2.5 45.43l7.5 7.49 10.66 10.67 1.46 1.46-1.46 1.46L10 77.18l-7.5 7.49a8.53 8.53 0 0 0 5 14.5h2.18a8.44 8.44 0 0 0 4.84-2.41l3.1-3.1L46.38 65zM51.61 70.51l-9 8.94-3.09 3.14 14.27 14.14a8.53 8.53 0 0 0 12.06-12.06zM59.82 30.88a8.47 8.47 0 0 0-6 2.5L39.56 47.59l12.15 12.08 14.14-14.24a8.52 8.52 0 0 0-6.03-14.55z" fill="#fff"/></svg>