<svg xmlns="http://www.w3.org/2000/svg" viewBox="0 0 283.46 101.64"><title>xfive</title><path d="M273.52,38.73c-5.75-5-13.46-7.56-22.92-7.56-9.18,0-17.15,2.82-23,8.16-4.77,4.33-10.45,12.54-10.45,27.08,0,12.1,3.54,21.36,10.53,27.53,5.72,5,13.66,7.71,22.94,7.71,9.47,0,18.17-3,23.88-8.1l0.06-.05a28.24,28.24,0,0,0,2.15-2.18,7.64,7.64,0,0,0,.56-1,7.56,7.56,0,0,0,.19-5.86,7.64,7.64,0,0,0-7.12-4.89,7.44,7.44,0,0,0-1.71.2,7.63,7.63,0,0,0-3.49,1.88l-1.23,1.17c-4.23,3.38-10.66,3.71-13.28,3.71-5.3,0-9.35-1.06-12.26-3.39-4-3.17-4.87-8-5.11-13.11h2.32l41.93,0.05h0.58a5.69,5.69,0,0,0,3.21-1c1.45-1,2.18-3,2.18-5.77C283.46,56,280.86,45.14,273.52,38.73ZM238.34,49.9c3.16-3.44,8.45-4.82,12.27-4.82,7.07,0,12.28,3,15,8.71A22,22,0,0,1,267,58H233.78S234.38,54.2,238.34,49.9Z" style="fill:#fff"/><path d="M212.77,31.39a8.21,8.21,0,0,0-2.54-.41,8.55,8.55,0,0,0-8.14,6.22c0,0.13-.14.45-15.1,36.25L185.09,78l-1.9-4.55c-15-35.91-15.06-36.12-15.1-36.25A8.55,8.55,0,0,0,159.95,31a8.21,8.21,0,0,0-2.54.41,9,9,0,0,0-5.61,11.15c0.68,1.76,14.91,35.56,21.27,50.64l0.06,0,0.74,1.73a8.53,8.53,0,0,0,7.22,5.23l1.92,0.13v0h4v0l1.94-.11a8.51,8.51,0,0,0,7.32-5.24l0.74-1.73,0.05,0c7.51-17.85,20.57-48.91,21.28-50.67A9,9,0,0,0,212.77,31.39Z" style="fill:#fff"/><path d="M139,30.41H102.34L102.43,26c0.1-4.28,5.12-8.14,9.8-8.79l0.42,0h0a8.54,8.54,0,0,0,.77-17L111.57,0h0A27.63,27.63,0,0,0,85,25.89V30.4H80l-0.35,0a8.54,8.54,0,0,0,.62,17H85V91.69l0.06,0.51a8.54,8.54,0,0,0,17-1c0-.49-0.1-41.36-0.1-41.78v-2h28.28V91.69l0.06,0.51a8.54,8.54,0,0,0,17-1V39.09A8.72,8.72,0,0,0,144.91,33,8.42,8.42,0,0,0,139,30.41Z" style="fill:#fff"/><path d="M14.56,33.38A8.54,8.54,0,0,0,9.3,30.92H7.77A8.52,8.52,0,0,0,2.5,45.43L10,52.92,20.66,63.59l1.46,1.46-1.46,1.46L10,77.18,2.5,84.67a8.53,8.53,0,0,0,5,14.5l2.18,0a8.44,8.44,0,0,0,4.84-2.41l3.1-3.1L46.38,65Z" style="fill:#fff"/><path d="M51.61,70.51l-9,8.94-3.09,3.14L53.79,96.73A8.53,8.53,0,0,0,65.85,84.67Z" style="fill:#fff"/><path d="M59.82,30.88a8.47,8.47,0,0,0-6,2.5L39.56,47.59,51.71,59.67,65.85,45.43A8.52,8.52,0,0,0,59.82,30.88Z" style="fill:#fff"/></svg>